<?xml version="1.0" encoding="iso-8859-1"?>
<!-- Uploaded to: SVG Repo, www.svgrepo.com, Generator: SVG Repo Mixer Tools -->
<!DOCTYPE svg PUBLIC "-//W3C//DTD SVG 1.1//EN" "http://www.w3.org/Graphics/SVG/1.1/DTD/svg11.dtd">
<svg fill="#000000" version="1.1" id="Capa_1" xmlns="http://www.w3.org/2000/svg" xmlns:xlink="http://www.w3.org/1999/xlink" 
	 width="800px" height="800px" viewBox="0 0 187.059 187.059"
	 xml:space="preserve">
<g>
	<path d="M94.406,146.118c0,0,20.569-43.123,58.889-46.039c-0.262-3.715,3.373-32.008,33.765-59.02
		c-5.286,1.589-50.687,18.194-50.687,18.194s-9.511,21.711-20.618,35.217c-1.193,1.649-6.637,3.659-8.086,0.262
		c-1.114-2.569-3.057-19.004-3.057-22.983c0.268,0.268-10.261,22.533-20.298-0.055c0.262,3.44-1.404,16.392-2.643,20.919
		c-1.814,6.649-6.08,4.238-8.187,1.583c-2.116-2.648-17.598-17.813-20.77-36.352C47.425,56.255,0,40.94,0,40.94
		s33.177,30.188,32.385,59.053C34.501,100.261,67.982,101.089,94.406,146.118z"/>
</g>
</svg>