<svg xmlns="http://www.w3.org/2000/svg" xmlns:xlink="http://www.w3.org/1999/xlink" fill="#ffde00" height="800px" width="800px" version="1.1" id="Layer_1" viewBox="0 0 512.001 512.001" xml:space="preserve">
<g>
	<g>
		<path d="M504.779,322.288l-59.165-99.993c0,0-0.362,5.564-0.362-91.545c0.106-2.667-0.426-5.361-1.447-7.734L396.254,10.883    c-6.136-14.472-26.739-14.5-32.887,0.002c-0.914,2.159-6.276,14.802-13.095,30.88H161.73c-6.818-16.078-12.18-28.721-13.095-30.88    c-6.148-14.502-26.729-14.525-32.887-0.002L68.196,123.016c-1.013,2.356-1.542,5.026-1.447,7.672    c0,96.191-0.419,91.702-0.419,91.702L7.223,322.288c-1.732,2.923-2.618,6.252-2.49,9.7v162.153    c0,9.864,7.997,17.861,17.861,17.861c288.005,0,183.037,0,466.814,0c9.864,0,17.861-7.997,17.861-17.861V331.966    C507.395,328.448,506.465,325.134,504.779,322.288z M128.76,476.279H40.455V349.243h88.305    C128.76,362.376,128.76,461.263,128.76,476.279z M161.912,198.713h-59.44v-50.796h59.44V198.713z M314.551,476.279H197.452    v-22.828c0-32.285,26.266-58.55,58.549-58.55c32.284,0,58.55,26.266,58.55,58.55V476.279z M320.404,112.196H191.599    l-14.717-34.709h158.239L320.404,112.196z M350.09,147.917h59.44v50.796h-59.44V147.917z M383.242,476.279    c0-15.004,0-113.885,0-127.036h88.305v127.036H383.242z" fill="#ffde00"/>
	</g>
</g>
</svg>